<svg xmlns="http://www.w3.org/2000/svg" width="72" height="72" viewBox="0 0 72 72" fill="none"><circle cx="36" cy="36" r="36" fill="#E6F1D5"></circle><path d="M27 19C27 19.6535 27.0034 20.2828 27.0105 20.8889M45.8889 53C45.8889 52.3476 45.885 51.7182 45.8767 51.1111M31.3261 43.5556H27.5479M27.5479 43.5556C28.5064 37.8639 30.9372 36 36.4503 36C43.937 36 45.7289 33.422 45.8783 20.8889M27.5479 43.5556C27.1418 45.9669 27 49.0653 27 53M27.0105 20.8889H45.8783M27.0105 20.8889C27.159 33.422 28.9408 36 36.4386 36C41.9599 36 44.3873 37.8639 45.3432 43.5556M45.3432 43.5556H37.3825M45.3432 43.5556C45.681 45.5671 45.8349 48.0567 45.8767 51.1111M45.8783 20.8889C45.8855 20.2828 45.8889 19.6535 45.8889 19M34.5556 51.1111H45.8767M27.5086 28.4444H34.5556" stroke="#141414" stroke-width="2" stroke-linecap="round"></path></svg>