<svg xmlns="http://www.w3.org/2000/svg" width="56" height="56" viewBox="0 0 56 56" fill="none"><circle cx="28" cy="28" r="28" fill="#E8FFFF"></circle><path d="M22.9667 29.6667H24.263L26.1148 27.1667L29.6333 33L31.8556 29.6667H32.9667M21.3 16.3333H19.6333C17.7924 16.3333 16.3 17.8257 16.3 19.6667V39.6667C16.3 41.5076 17.7924 43 19.6333 43H36.3C38.141 43 39.6333 41.5076 39.6333 39.6667V19.6667C39.6333 17.8257 38.141 16.3333 36.3 16.3333H34.6333M21.3 16.3333C21.3 18.1743 22.7924 19.6667 24.6333 19.6667H31.3C33.141 19.6667 34.6333 18.1743 34.6333 16.3333M21.3 16.3333C21.3 14.4924 22.7924 13 24.6333 13H31.3C33.141 13 34.6333 14.4924 34.6333 16.3333" stroke="#141414" stroke-linecap="round" stroke-linejoin="round"></path></svg>